<svg width="40" height="40" viewBox="0 0 40 40" fill="none" xmlns="http://www.w3.org/2000/svg">
<path d="M25 25.4128C27.3012 25.4128 29.3845 26.3456 30.8926 27.8536C32.4006 29.3617 33.3334 31.445 33.3334 33.7462V37.0795H6.66669V33.7462C6.66669 31.445 7.59943 29.3617 9.10746 27.8536C10.6155 26.3456 12.6988 25.4128 15 25.4128H25ZM20.3825 5.41284C22.1246 5.41284 23.7092 6.09219 24.8784 7.19822C26.0392 8.29622 26.7913 9.81544 26.8748 11.5067L26.8825 13.1693C26.8825 14.9348 26.1546 16.5342 24.9829 17.6931C23.8044 18.8586 22.177 19.5795 20.3825 19.5795C18.6405 19.5795 17.0559 18.9002 15.8867 17.7941C14.7259 16.6961 13.9738 15.1769 13.8903 13.4857L13.8825 11.8231C13.8825 10.0576 14.6105 8.4581 15.7822 7.29923C16.9607 6.13373 18.588 5.41284 20.3825 5.41284Z" stroke="black" stroke-width="2"/>
</svg>
